<svg xmlns="http://www.w3.org/2000/svg" width="512" height="512" viewBox="0 0 588.6 588.6"><style>.a{fill:#D80027;}</style><path d="M271 245.5c-6.1 0.1-10.3 0.8-12.4 1.4v37.7c2.6 0.6 5.7 0.8 10.1 0.8 16.3 0.1 26.4-7.8 26.4-21.2C295.1 252.1 286.3 245.1 271 245.5z" class="a"/><path d="M163.3 247.8c-5.3 0.1-8.9 0.7-10.8 1.3v35.1c2.2 0.5 5 0.7 8.7 0.7 14.1 0 22.9-7.3 22.9-19.8C184.1 254 176.5 247.5 163.3 247.8z" class="a"/><path d="M359 537.8c0.8 0.1 1.6 0.1 2.3 0.1h178.2c20.9 0 37.8-17 37.8-37.8V87c0-20.8-16.9-37.8-37.8-37.8h-178.2c-0.8 0-1.6 0.1-2.3 0.1V0L11.2 46.4v494.6L359 588.6V537.8zM359 71c0.8-0.1 1.5-0.2 2.3-0.2h178.2c8.9 0 16.2 7.3 16.2 16.2v413.1c0 8.9-7.3 16.2-16.2 16.2h-178.2c-0.8 0-1.6-0.1-2.3-0.2V71zM87.3 325c7.2 0.2 15.2-1.2 20-3.1l3.7 20.5c-4.5 2.2-14.5 4.3-27.2 3.7 -35-1.7-52.4-25.9-52.4-57 0-37.2 23.9-58.8 54.8-59.9 12.4-0.5 21.9 1.9 26.2 4.2l-5 20.8c-4.9-2.1-11.7-4-20.1-3.8 -18.5 0.4-32.6 12.7-32.6 37.4C54.5 309.9 66.5 324.3 87.3 325zM200.1 293.5c-9.4 8.8-23 12.5-38.7 12.3 -3.4-0.1-6.5-0.3-8.9-0.7v42.5l-25.2-1.2V231.1c7.8-1.7 18.8-3.1 34.7-3.7 16.4-0.6 28.3 2.2 36.4 8.5 7.8 6 13.2 16.1 13.2 28.2C211.4 276.3 207.4 286.6 200.1 293.5zM313.6 294.5c-10.8 9.4-26.6 13.4-44.7 13.1 -4-0.1-7.5-0.3-10.3-0.7v45.6l-29-1.3V227.6c8.9-1.8 21.6-3.4 39.9-4 18.9-0.7 32.7 2.3 42 9.1 9.1 6.4 15.2 17.3 15.2 30.4C326.7 276 322 287.1 313.6 294.5z" class="a"/><path d="M466.7 331.5c17.3 0 32.5-3 40.5-6.6l-5.4-33.4c-6.9 2.7-15.2 4.5-25.9 4.5 -22.1 0-40-14-40-40.8 -0.3-23.9 15.2-40.8 39.1-40.8 11.9 0 20 2.1 25.3 4.5l7.2-33.7c-9.5-3.6-22.6-5.7-34.6-5.7 -54.3 0-83.5 34.9-83.5 77.5C389.5 302.9 419.6 331.5 466.7 331.5z" class="a"/><polygon points="410 428 422.3 428 422.3 400.4 448.5 400.4 448.5 388.6 422.3 388.6 422.3 361.2 410 361.2 410 388.6 383.7 388.6 383.7 400.4 410 400.4 " class="a"/><polygon points="497.1 361.2 484.8 361.2 484.8 388.6 458.6 388.6 458.6 400.4 484.8 400.4 484.8 428 497.1 428 497.1 400.4 523.4 400.4 523.4 388.6 497.1 388.6 " class="a"/></svg>