<svg xmlns="http://www.w3.org/2000/svg" viewBox="0 0 17.1 17.1" width="512" height="512"><style>.a{fill:#91DC5A;}</style><path d="M11.3 8c1.3-0.6 1.5-5.1 0.7-6.4 -1-1.7-5.7-1.4-7.2-0.1C4.6 2.1 4.6 3.2 4.6 4.1h4.7v0.4H4.6c0 0-2.1 0-2.1 0 -3.6 0-3.5 7.8 1.2 7.8 0 0 0.2-1.7 0.5-2.6C5.2 7.1 9.2 9 11.3 8zM6.4 3.5c-0.5 0-1-0.4-1-1 0-0.5 0.4-1 1-1 0.5 0 1 0.4 1 1C7.4 3 6.9 3.5 6.4 3.5z" class="a"/><path d="M13.1 4.7c0 0-0.1 1.7-0.4 2.6 -0.9 2.7-4.9 0.8-7 1.7C4.4 9.6 4.2 14.1 4.9 15.4c1 1.7 5.7 1.4 7.2 0.1 0.2-0.6 0.2-1.7 0.1-2.6H7.6v-0.4h4.7c0 0 2.3 0 2.3 0C17.9 12.5 18.2 4.7 13.1 4.7zM10.4 13.4c0.5 0 1 0.4 1 1 0 0.5-0.4 1-1 1s-1-0.4-1-1C9.4 13.9 9.9 13.4 10.4 13.4z" class="a"/></svg>